<svg width="16" height="9" viewBox="0 0 16 9" fill="none" xmlns="http://www.w3.org/2000/svg">
<path d="M1.35355 0.646447C1.15829 0.451184 0.841709 0.451184 0.646447 0.646447C0.451184 0.841709 0.451184 1.15829 0.646447 1.35355L1.35355 0.646447ZM8 8L7.64645 8.35355C7.84171 8.54882 8.15829 8.54882 8.35355 8.35355L8 8ZM15.3536 1.35355C15.5488 1.15829 15.5488 0.841709 15.3536 0.646447C15.1583 0.451184 14.8417 0.451184 14.6464 0.646447L15.3536 1.35355ZM0.646447 1.35355L7.64645 8.35355L8.35355 7.64645L1.35355 0.646447L0.646447 1.35355ZM8.35355 8.35355L15.3536 1.35355L14.6464 0.646447L7.64645 7.64645L8.35355 8.35355Z" fill="#808080"/>
</svg>
