<svg width="16" height="9" viewBox="0 0 16 9" fill="none" xmlns="http://www.w3.org/2000/svg">
<path d="M14.6464 8.35355C14.8417 8.54882 15.1583 8.54882 15.3536 8.35355C15.5488 8.15829 15.5488 7.84171 15.3536 7.64645L14.6464 8.35355ZM8 1L8.35355 0.646447C8.15829 0.451184 7.84171 0.451184 7.64645 0.646447L8 1ZM0.646446 7.64645C0.451184 7.84171 0.451184 8.15829 0.646446 8.35355C0.841709 8.54882 1.15829 8.54882 1.35355 8.35355L0.646446 7.64645ZM15.3536 7.64645L8.35355 0.646447L7.64645 1.35355L14.6464 8.35355L15.3536 7.64645ZM7.64645 0.646447L0.646446 7.64645L1.35355 8.35355L8.35355 1.35355L7.64645 0.646447Z" fill="#808080"/>
</svg>
